<?xml version="1.0" encoding="utf-8"?>
<!-- Generator: Adobe Illustrator 22.1.0, SVG Export Plug-In . SVG Version: 6.00 Build 0)  -->
<svg version="1.1" id="Layer_1" xmlns="http://www.w3.org/2000/svg" xmlns:xlink="http://www.w3.org/1999/xlink" x="0px" y="0px"
	 viewBox="0 0 512 512" style="enable-background:new 0 0 512 512;" xml:space="preserve">
<style type="text/css">
	.st0{fill:#6770E6;}
	.st1{fill:#5861C7;}
	.st2{fill:#FFEFE4;}
	.st3{fill:#D476E2;}
	.st4{fill:#EA82FA;}
	.st5{fill:#B665C2;}
	.st6{fill:#69EBFC;}
	.st7{fill:#FF8354;}
	.st8{fill:#333399;}
	.st9{fill:#E0734A;}
	.st10{fill:#FFAC8C;}
	.st11{fill:#382F8B;}
	.st12{fill:#C7FCFE;}
	.st13{fill:#EDD4C2;}
	.st14{fill:#8F95E6;}
	.st15{fill:#A1F1FC;}
	.st16{fill:#FFF7F2;}
	.st17{opacity:0.8;fill:#A1F1FC;}
	.st18{fill:#4C54AD;}
	.st19{fill:#5FD4E3;}
	.st20{fill:#FFE4D1;}
	.st21{fill:#5ED4E3;}
	.st22{fill:#56C1CF;}
	.st23{fill:#9FA5FF;}
	.st24{fill:#C46541;}
	.st25{fill:#FFCAB5;}
	.st26{fill:#5A62C9;}
	.st27{fill:#BABEFF;}
</style>
<g>
	<rect x="191.299" y="468" class="st5" width="129.402" height="28"/>
	<rect x="191.299" y="468" class="st5" width="129.402" height="28"/>
	<rect x="191.299" y="16" class="st5" width="129.402" height="28"/>
	<path class="st5" d="M408.785,394.928l-41.569,24l-2.668-4.621c-2.945-5.1-1.197-11.622,3.903-14.567l23.099-13.336
		c5.1-2.945,11.622-1.197,14.567,3.903L408.785,394.928z"/>
	<path class="st5" d="M452,232v48h-5.336c-5.889,0-10.664-4.774-10.664-10.664v-26.672c0-5.889,4.774-10.664,10.664-10.664H452z"/>
	<path class="st5" d="M60,280v-48h5.336C71.226,232,76,236.774,76,242.664v26.672C76,275.226,71.226,280,65.336,280H60z"/>
	<path class="st5" d="M408.785,116.973l-41.569-24l-2.668,4.621c-2.945,5.1-1.197,11.622,3.903,14.567l23.099,13.336
		c5.1,2.945,11.622,1.197,14.567-3.903L408.785,116.973z"/>
	<path class="st5" d="M103.117,394.928l41.569,24l2.668-4.621c2.945-5.1,1.197-11.622-3.903-14.567l-23.099-13.336
		c-5.1-2.945-11.622-1.197-14.567,3.903L103.117,394.928z"/>
	<path class="st5" d="M103.117,116.973l41.569-24l2.668,4.621c2.945,5.1,1.197,11.622-3.903,14.567l-23.099,13.336
		c-5.1,2.945-11.622,1.197-14.567-3.903L103.117,116.973z"/>
	<polygon class="st7" points="386.804,331.52 386.804,180.48 256,104.96 125.196,180.48 125.196,331.52 256,407.04 	"/>
	<rect x="125.196" y="180.48" class="st9" width="65.402" height="151.04"/>
	<rect x="192" y="180.48" class="st7" width="129.402" height="151.04"/>
	<rect x="321.402" y="180.48" class="st10" width="65.402" height="151.04"/>
	<polygon class="st9" points="192,180 256,104 320,180 	"/>
	<polygon class="st9" points="192,332 256,408 320,332 	"/>
	<polygon class="st10" points="124,180 192,180 256,104 	"/>
	<polygon class="st10" points="124,332 192,332 256,408 	"/>
	<path class="st3" d="M60,365.644V146.356c0-2.176,1.161-4.187,3.046-5.275L185.521,70.37c3.575-2.064,5.778-5.879,5.778-10.008
		V4.789c0-2.645-2.144-4.789-4.789-4.789H41.135C18.417,0,0,18.417,0,41.135v429.729C0,493.583,18.417,512,41.135,512H186.51
		c2.645,0,4.789-2.144,4.789-4.789v-55.573c0-4.129-2.203-7.944-5.778-10.008L63.046,370.919C61.161,369.831,60,367.82,60,365.644z"
		/>
	<path class="st3" d="M470.865,0H325.49c-2.645,0-4.789,2.144-4.789,4.789v55.573c0,4.129,2.203,7.944,5.778,10.008l122.475,70.711
		c1.885,1.088,3.046,3.099,3.046,5.275v219.288c0,2.176-1.161,4.187-3.046,5.275L326.479,441.63
		c-3.575,2.064-5.778,5.879-5.778,10.008v55.573c0,2.645,2.144,4.789,4.789,4.789h145.374C493.583,512,512,493.583,512,470.865
		V41.135C512,18.417,493.583,0,470.865,0z"/>
	<path class="st5" d="M186.51,492H41.135C18.417,492,0,473.583,0,450.865v20C0,493.583,18.417,512,41.135,512H186.51
		c2.645,0,4.789-2.144,4.789-4.789v-20C191.299,489.856,189.155,492,186.51,492z"/>
	<path class="st5" d="M470.865,492H325.49c-2.645,0-4.789-2.144-4.789-4.789v20c0,2.645,2.144,4.789,4.789,4.789h145.375
		C493.583,512,512,493.583,512,470.865v-20C512,473.583,493.583,492,470.865,492z"/>
	<path class="st4" d="M186.51,20H41.135C18.417,20,0,38.417,0,61.135v-20C0,18.417,18.417,0,41.135,0H186.51
		c2.645,0,4.789,2.144,4.789,4.789v20C191.299,22.144,189.155,20,186.51,20z"/>
	<path class="st4" d="M470.865,20H325.49c-2.645,0-4.789,2.144-4.789,4.789v-20c0-2.645,2.144-4.789,4.789-4.789h145.375
		C493.583,0,512,18.417,512,41.135v20C512,38.417,493.583,20,470.865,20z"/>
</g>
</svg>
